<svg viewBox="0 0 32 32" xmlns="http://www.w3.org/2000/svg">

  <defs>
    <radialGradient id="bgGradient" cx="0.3" cy="0.3">
      <stop offset="0%" stop-color="#6366f1"/>
      <stop offset="100%" stop-color="#3730a3"/>
    </radialGradient>
    <linearGradient id="crossGradient" x1="0%" y1="0%" x2="100%" y2="100%">
      <stop offset="0%" stop-color="#ffffff"/>
      <stop offset="100%" stop-color="#f1f2f6"/>
    </linearGradient>
    <filter id="shadow" x="-20%" y="-20%" width="140%" height="140%">
      <dropShadow dx="1" dy="1" stdDeviation="1" flood-color="#000000" flood-opacity="0.3"/>
    </filter>
  </defs>
 
  <circle cx="16" cy="16" r="15" fill="url(#bgGradient)" filter="url(#shadow)"/>
  

  <g fill="url(#crossGradient)">

    <rect x="13" y="8" width="6" height="16" rx="1"/>
  
    <rect x="8" y="13" width="16" height="6" rx="1"/>
  </g>
  

  <g transform="translate(22, 9) scale(0.4)">
    <path d="M12 21.35l-1.45-1.32C5.4 15.36 2 12.28 2 8.5 2 5.42 4.42 3 7.5 3c1.74 0 3.41.81 4.5 2.09C13.09 3.81 14.76 3 16.5 3 19.58 3 22 5.42 22 8.5c0 3.78-3.4 6.86-8.55 11.54L12 21.35z" 
          fill="#60a5fa" opacity="0.8"/>
  </g>
  
 
  <g opacity="0.6" stroke="#fff" stroke-width="1.5" fill="none" transform="translate(4, 26)">
    <path d="M0 0 L3 0 L4 -3 L6 3 L8 -2 L10 0 L24 0" stroke-linecap="round"/>
  </g>
</svg>
